<svg width="20" height="19" viewBox="0 0 20 19" fill="none" xmlns="http://www.w3.org/2000/svg">
  <path
    d="M9.19073 1.63982C9.49008 0.718508 10.7935 0.718509 11.0928 1.63982L12.6006 6.28027C12.7345 6.69229 13.1184 6.97125 13.5517 6.97125H18.4309C19.3997 6.97125 19.8024 8.21087 19.0187 8.78027L15.0713 11.6482C14.7208 11.9029 14.5742 12.3542 14.708 12.7663L16.2158 17.4067C16.5152 18.328 15.4607 19.0941 14.677 18.5247L10.7296 15.6568C10.3791 15.4021 9.90449 15.4021 9.554 15.6568L5.6066 18.5247C4.82289 19.0941 3.76841 18.328 4.06776 17.4067L5.57553 12.7663C5.70941 12.3542 5.56275 11.9029 5.21226 11.6482L1.26486 8.78027C0.481147 8.21087 0.883923 6.97125 1.85265 6.97125H6.7319C7.16513 6.97125 7.54908 6.69229 7.68296 6.28027L9.19073 1.63982Z"
    fill="white" />
</svg>